<svg width="204" height="37" viewBox="0 0 204 37" fill="none" xmlns="http://www.w3.org/2000/svg">
<path fill-rule="evenodd" clip-rule="evenodd" d="M87.9357 8L83.7657 29H79.2057L81.6657 16.52L73.6557 26.78H71.4957L67.1757 16.4L64.6557 29H60.0957L64.2957 8H68.2557L73.5057 21.08L83.7657 8H87.9357ZM106.789 12.86L103.579 29H99.1388L99.4388 27.41C98.0988 28.63 96.4488 29.24 94.4888 29.24C93.2288 29.24 92.0688 28.95 91.0088 28.37C89.9488 27.79 89.1038 26.955 88.4738 25.865C87.8438 24.775 87.5288 23.49 87.5288 22.01C87.5288 20.23 87.9238 18.625 88.7138 17.195C89.5038 15.765 90.5788 14.645 91.9388 13.835C93.2988 13.025 94.7988 12.62 96.4388 12.62C98.9188 12.62 100.669 13.43 101.689 15.05L102.109 12.86H106.789ZM98.3888 24.695C99.1088 24.245 99.6688 23.62 100.069 22.82C100.469 22.02 100.669 21.1 100.669 20.06C100.669 18.96 100.344 18.09 99.6938 17.45C99.0438 16.81 98.1388 16.49 96.9788 16.49C96.0588 16.49 95.2388 16.715 94.5188 17.165C93.7988 17.615 93.2388 18.24 92.8388 19.04C92.4388 19.84 92.2388 20.76 92.2388 21.8C92.2388 22.9 92.5638 23.77 93.2138 24.41C93.8638 25.05 94.7688 25.37 95.9288 25.37C96.8488 25.37 97.6688 25.145 98.3888 24.695ZM116.447 13.13C117.437 12.79 118.602 12.62 119.942 12.62L119.102 16.94C118.542 16.9 118.182 16.88 118.022 16.88C116.602 16.88 115.467 17.23 114.617 17.93C113.767 18.63 113.192 19.72 112.892 21.2L111.332 29H106.652L109.862 12.86H114.302L113.912 14.78C114.612 14.02 115.457 13.47 116.447 13.13ZM130.245 19.88L135.795 29H130.365L126.525 22.73L123.675 25.1L122.895 29H118.215L122.655 6.74H127.335L124.845 19.19L132.585 12.86H138.675L130.245 19.88ZM152.878 22.19H140.518C140.678 24.39 142.068 25.49 144.688 25.49C145.508 25.49 146.293 25.36 147.043 25.1C147.793 24.84 148.448 24.47 149.008 23.99L150.958 27.08C150.058 27.8 149.028 28.34 147.868 28.7C146.708 29.06 145.488 29.24 144.208 29.24C142.548 29.24 141.093 28.945 139.843 28.355C138.593 27.765 137.633 26.92 136.963 25.82C136.293 24.72 135.958 23.45 135.958 22.01C135.958 20.23 136.363 18.625 137.173 17.195C137.983 15.765 139.108 14.645 140.548 13.835C141.988 13.025 143.628 12.62 145.468 12.62C147.028 12.62 148.383 12.91 149.533 13.49C150.683 14.07 151.573 14.9 152.203 15.98C152.833 17.06 153.148 18.31 153.148 19.73C153.148 20.47 153.058 21.29 152.878 22.19ZM142.468 17.015C141.708 17.605 141.168 18.42 140.848 19.46H148.858C148.858 18.42 148.533 17.605 147.883 17.015C147.233 16.425 146.358 16.13 145.258 16.13C144.158 16.13 143.228 16.425 142.468 17.015ZM163.016 13.13C164.006 12.79 165.171 12.62 166.511 12.62L165.671 16.94C165.111 16.9 164.751 16.88 164.591 16.88C163.171 16.88 162.036 17.23 161.186 17.93C160.336 18.63 159.761 19.72 159.461 21.2L157.901 29H153.221L156.431 12.86H160.871L160.481 14.78C161.181 14.02 162.026 13.47 163.016 13.13ZM164.754 28.475C164.234 27.965 163.974 27.32 163.974 26.54C163.974 25.62 164.274 24.87 164.874 24.29C165.474 23.71 166.214 23.42 167.094 23.42C167.894 23.42 168.549 23.67 169.059 24.17C169.569 24.67 169.824 25.32 169.824 26.12C169.824 27.02 169.519 27.765 168.909 28.355C168.299 28.945 167.574 29.24 166.734 29.24C165.934 29.24 165.274 28.985 164.754 28.475ZM174.428 12.86H179.078L175.868 29H171.218L174.428 12.86ZM175.583 9.905C175.073 9.435 174.818 8.86 174.818 8.18C174.818 7.38 175.103 6.715 175.673 6.185C176.243 5.655 176.988 5.39 177.908 5.39C178.728 5.39 179.393 5.615 179.903 6.065C180.413 6.515 180.668 7.07 180.668 7.73C180.668 8.59 180.378 9.285 179.798 9.815C179.218 10.345 178.468 10.61 177.548 10.61C176.748 10.61 176.093 10.375 175.583 9.905ZM183.126 28.34C181.896 27.74 180.946 26.895 180.276 25.805C179.606 24.715 179.271 23.45 179.271 22.01C179.271 20.23 179.691 18.63 180.531 17.21C181.371 15.79 182.531 14.67 184.011 13.85C185.491 13.03 187.161 12.62 189.021 12.62C190.661 12.62 192.091 12.92 193.311 13.52C194.531 14.12 195.476 14.965 196.146 16.055C196.816 17.145 197.151 18.41 197.151 19.85C197.151 21.63 196.736 23.23 195.906 24.65C195.076 26.07 193.916 27.19 192.426 28.01C190.936 28.83 189.261 29.24 187.401 29.24C185.781 29.24 184.356 28.94 183.126 28.34ZM190.131 24.695C190.851 24.245 191.411 23.62 191.811 22.82C192.211 22.02 192.411 21.1 192.411 20.06C192.411 18.96 192.091 18.09 191.451 17.45C190.811 16.81 189.911 16.49 188.751 16.49C187.831 16.49 187.011 16.715 186.291 17.165C185.571 17.615 185.011 18.24 184.611 19.04C184.211 19.84 184.011 20.76 184.011 21.8C184.011 22.9 184.336 23.77 184.986 24.41C185.636 25.05 186.541 25.37 187.701 25.37C188.601 25.37 189.411 25.145 190.131 24.695Z" fill="#2C2E31"/>
<path fill-rule="evenodd" clip-rule="evenodd" d="M2.24324 17C2.71986 13.3921 3.30456 9.89111 3.99735 6.49717C4.74472 2.83577 8.16667 0 11.8376 0H45.8053C49.2865 -6.66556e-06 51.9008 2.55815 51.9409 6.00393C51.9817 9.50495 51.7051 13.5036 51.1111 18C50.5377 22.3411 49.7698 26.3505 48.8075 30.028C47.764 34.0155 43.9736 37 39.9528 37H8.01295C3.78975 37 0.727625 33.7173 1.0192 29.5024C1.33256 24.9726 1.74057 20.8051 2.24324 17ZM33.4703 6.78033C32.6926 5.99923 31.4329 5.99126 30.6494 6.76662C26.7405 10.6352 16.0336 21.2309 15.3976 21.85C14.203 23.2435 12.8304 27.8 12.8304 27.8C12.7655 28.2159 12.7229 28.7524 12.8954 29.1397C12.9946 29.3763 13.1835 29.5753 13.4391 29.6812C13.9012 29.8727 14.8315 30.1361 16.3052 30.3916C18.7016 30.8071 21.7927 31.0549 25.6548 31.0549C29.5169 31.0549 32.608 30.8071 35.0044 30.3916C36.4782 30.1361 37.4085 29.8727 37.8705 29.6812C38.3848 29.4681 38.629 28.8785 38.4159 28.3642C38.2028 27.8499 37.6131 27.6057 37.0988 27.8188C37.0377 27.8441 36.8697 27.9022 36.585 27.9828C36.0826 28.1251 35.4441 28.2693 34.66 28.4053C32.3815 28.8003 29.4051 29.0389 25.6548 29.0389C22.6096 29.0389 20.0747 28.8816 18.0093 28.6109C18.8823 28.2342 19.7832 27.7015 20.5321 26.95C22.3763 25.0995 32.0315 15.4937 35.6984 11.8461C36.4818 11.0668 36.4808 9.80398 35.7012 9.02093L33.4703 6.78033ZM15.8382 25.4358C15.39 26.1855 16.1193 26.8507 16.872 26.4075C17.8665 25.822 18.9959 25.0833 19.6764 24.4C20.8664 23.2052 27.8256 16.3013 30.0897 14.0556C30.4839 13.6646 30.4802 13.0312 30.0863 12.64L29.7925 12.3482C29.4033 11.9615 28.7797 11.9563 28.3896 12.342C26.2702 14.4375 19.9476 20.693 17.9649 22.7C17.008 23.6686 16.3197 24.6302 15.8382 25.4358ZM30.6597 11.5095C30.266 11.1184 30.266 10.4816 30.6597 10.0905L31.8079 8.94999C32.1979 8.56264 32.8274 8.56264 33.2174 8.94999L33.5099 9.24052C33.9036 9.63158 33.9036 10.2684 33.5099 10.6595L32.3616 11.8C31.9716 12.1874 31.3421 12.1874 30.9522 11.8L30.6597 11.5095Z" fill="#2C2E31"/>
</svg>
